<svg width="18" height="22" viewBox="0 0 18 22" fill="none" xmlns="http://www.w3.org/2000/svg">
<path d="M9 15.5L12 12.5L10.95 11.45L9.75 12.65V9.5H8.25V12.65L7.05 11.45L6 12.5L9 15.5ZM3.75 8V16.25H14.25V8H3.75ZM3.75 17.75C3.3375 17.75 2.98438 17.6031 2.69063 17.3094C2.39687 17.0156 2.25 16.6625 2.25 16.25V6.89375C2.25 6.71875 2.27813 6.55 2.33438 6.3875C2.39062 6.225 2.475 6.075 2.5875 5.9375L3.525 4.79375C3.6625 4.61875 3.83438 4.48437 4.04063 4.39062C4.24688 4.29687 4.4625 4.25 4.6875 4.25H13.3125C13.5375 4.25 13.7531 4.29687 13.9594 4.39062C14.1656 4.48437 14.3375 4.61875 14.475 4.79375L15.4125 5.9375C15.525 6.075 15.6094 6.225 15.6656 6.3875C15.7219 6.55 15.75 6.71875 15.75 6.89375V16.25C15.75 16.6625 15.6031 17.0156 15.3094 17.3094C15.0156 17.6031 14.6625 17.75 14.25 17.75H3.75ZM4.05 6.5H13.95L13.3125 5.75H4.6875L4.05 6.5Z" fill="#FF4800"/>
</svg>
