<svg width="18" height="22" viewBox="0 0 18 22" fill="none" xmlns="http://www.w3.org/2000/svg">
<path d="M3.75 17.75C3.3375 17.75 2.98438 17.6031 2.69063 17.3094C2.39687 17.0156 2.25 16.6625 2.25 16.25V5.75C2.25 5.3375 2.39687 4.98437 2.69063 4.69062C2.98438 4.39687 3.3375 4.25 3.75 4.25H14.25C14.6625 4.25 15.0156 4.39687 15.3094 4.69062C15.6031 4.98437 15.75 5.3375 15.75 5.75V16.25C15.75 16.6625 15.6031 17.0156 15.3094 17.3094C15.0156 17.6031 14.6625 17.75 14.25 17.75H3.75ZM3.75 16.25H14.25V14H12C11.625 14.475 11.1781 14.8438 10.6594 15.1062C10.1406 15.3687 9.5875 15.5 9 15.5C8.4125 15.5 7.85938 15.3687 7.34063 15.1062C6.82188 14.8438 6.375 14.475 6 14H3.75V16.25ZM9 14C9 14 9.11875 14 9.35625 14C9.59375 14 9.90625 13.8625 10.2938 13.5875C10.6813 13.3125 10.95 12.95 11.1 12.5H14.25V5.75H3.75V12.5H6.9C7.05 12.95 7.31875 13.3125 7.70625 13.5875C8.09375 13.8625 8.525 14 9 14ZM3.75 16.25H6C6.375 16.25 6.82188 16.25 7.34063 16.25C7.85938 16.25 8.4125 16.25 9 16.25C9.5875 16.25 10.1406 16.25 10.6594 16.25C11.1781 16.25 11.625 16.25 12 16.25H14.25H3.75Z" fill="#FDFEFF"/>
</svg>
